<svg width="30" height="30" viewBox="0 0 30 30" fill="none" xmlns="http://www.w3.org/2000/svg">
<path d="M8.99475 29.0833H20.8391C24.1098 29.0833 26.7612 26.5531 26.7612 23.4319V16.5218C26.7612 15.5185 27.1789 14.5563 27.9223 13.8468C29.6449 12.203 29.4209 9.47957 27.4509 8.1123L18.4002 1.83091C16.3235 0.389697 13.5103 0.389697 11.4337 1.83091L2.38296 8.1123C0.412893 9.47957 0.188968 12.203 1.91147 13.8468C2.65492 14.5563 3.07258 15.5185 3.07258 16.5218V23.4319C3.07258 26.5531 5.72403 29.0833 8.99475 29.0833Z" stroke="#7E7E7E" stroke-width="1.5"/>
<path d="M17.7502 20.5833C17.7502 22.1481 16.4817 23.4167 14.9169 23.4167C13.3521 23.4167 12.0836 22.1481 12.0836 20.5833C12.0836 19.0185 13.3521 17.75 14.9169 17.75C16.4817 17.75 17.7502 19.0185 17.7502 20.5833Z" stroke="#7E7E7E" stroke-width="1.5"/>
</svg>
