<svg width="22" height="27" viewBox="0 0 22 27" fill="none" xmlns="http://www.w3.org/2000/svg">
<path d="M16.3333 6.41667H15.5833C15.5833 9.13207 13.3821 11.3333 10.6667 11.3333V12.0833V12.8333C14.2105 12.8333 17.0833 9.96049 17.0833 6.41667H16.3333ZM10.6667 12.0833V11.3333C7.95127 11.3333 5.75 9.13207 5.75 6.41667H5H4.25C4.25 9.96049 7.12284 12.8333 10.6667 12.8333V12.0833ZM5 6.41667H5.75C5.75 3.70127 7.95127 1.5 10.6667 1.5V0.75V0C7.12284 0 4.25 2.87284 4.25 6.41667H5ZM10.6667 0.75V1.5C13.3821 1.5 15.5833 3.70127 15.5833 6.41667H16.3333H17.0833C17.0833 2.87284 14.2105 0 10.6667 0V0.75ZM20.5833 21.2917H19.8333C19.8333 22.2238 19.0582 23.2695 17.3434 24.1269C15.6734 24.9619 13.3139 25.5 10.6667 25.5V26.25V27C13.4963 27 16.0951 26.4281 18.0142 25.4686C19.8885 24.5314 21.3333 23.098 21.3333 21.2917H20.5833ZM10.6667 26.25V25.5C8.01944 25.5 5.65991 24.9619 3.98993 24.1269C2.2751 23.2695 1.5 22.2238 1.5 21.2917H0.75H0C0 23.098 1.44482 24.5314 3.31911 25.4686C5.23827 26.4281 7.83707 27 10.6667 27V26.25ZM0.75 21.2917H1.5C1.5 20.3596 2.2751 19.3138 3.98993 18.4564C5.65991 17.6214 8.01944 17.0833 10.6667 17.0833V16.3333V15.5833C7.83707 15.5833 5.23827 16.1552 3.31911 17.1148C1.44482 18.0519 0 19.4853 0 21.2917H0.75ZM10.6667 16.3333V17.0833C13.3139 17.0833 15.6734 17.6214 17.3434 18.4564C19.0582 19.3138 19.8333 20.3596 19.8333 21.2917H20.5833H21.3333C21.3333 19.4853 19.8885 18.0519 18.0142 17.1148C16.0951 16.1552 13.4963 15.5833 10.6667 15.5833V16.3333Z" fill="#FF8225"/>
</svg>
