<svg width="32" height="32" viewBox="0 0 32 32" fill="none" xmlns="http://www.w3.org/2000/svg">
<path fill-rule="evenodd" clip-rule="evenodd" d="M31.6667 15.8333C31.6667 24.5778 24.5778 31.6667 15.8333 31.6667C7.08882 31.6667 0 24.5778 0 15.8333C0 7.08882 7.08882 0 15.8333 0C24.5778 0 31.6667 7.08882 31.6667 15.8333ZM15.8333 5.9375C10.368 5.9375 5.9375 10.368 5.9375 15.8333C5.9375 21.2986 10.368 25.7292 15.8333 25.7292C21.2986 25.7292 25.7292 21.2986 25.7292 15.8333C25.7292 10.368 21.2986 5.9375 15.8333 5.9375ZM3.5625 15.8333C3.5625 9.05634 9.05634 3.5625 15.8333 3.5625C22.6103 3.5625 28.1042 9.05634 28.1042 15.8333C28.1042 22.6103 22.6103 28.1042 15.8333 28.1042C9.05634 28.1042 3.5625 22.6103 3.5625 15.8333ZM17.0208 11.0833C17.0208 10.4275 16.4892 9.89583 15.8333 9.89583C15.1775 9.89583 14.6458 10.4275 14.6458 11.0833V14.8548C14.6458 15.9043 15.2388 16.8637 16.1775 17.3331L18.4689 18.4788C19.0555 18.7721 19.7688 18.5343 20.0621 17.9477C20.3554 17.3611 20.1177 16.6478 19.5311 16.3545L17.2396 15.2088C17.1055 15.1418 17.0208 15.0047 17.0208 14.8548V11.0833Z" fill="white"/>
</svg>
